<svg xmlns="http://www.w3.org/2000/svg" xmlns:xlink="http://www.w3.org/1999/xlink" width="224" height="224" viewBox="0 0 224 224"><defs><style>.a{clip-path:url(#i);}.b,.c,.d,.e,.f,.g,.h{opacity:0.699;}.b{fill:url(#a);}.c{fill:url(#b);}.d{fill:url(#c);}.e{fill:url(#d);}.f{fill:url(#e);}.g{fill:url(#f);}.h{fill:url(#g);}</style><linearGradient id="a" x1="0.5" y1="0.5" x2="1" y2="0.5" gradientUnits="objectBoundingBox"><stop offset="0" stop-color="#1464b4"/><stop offset="1" stop-color="#187b68"/></linearGradient><linearGradient id="b" x1="0.5" x2="1" y2="0.5" gradientUnits="objectBoundingBox"><stop offset="0" stop-color="#2850b4"/><stop offset="1" stop-color="#427da8"/></linearGradient><linearGradient id="c" x1="0.5" x2="0.159" y2="0.861" gradientUnits="objectBoundingBox"><stop offset="0" stop-color="#6414b4"/><stop offset="1" stop-color="#986bc3"/></linearGradient><linearGradient id="d" x1="0.5" x2="0.012" gradientUnits="objectBoundingBox"><stop offset="0" stop-color="#7814a0"/><stop offset="1" stop-color="#bb7cd3"/></linearGradient><linearGradient id="e" x1="0.5" x2="-0.029" gradientUnits="objectBoundingBox"><stop offset="0" stop-color="#8c148c"/><stop offset="1" stop-color="#d88dd8"/></linearGradient><linearGradient id="f" x1="0.5" x2="-0.045" gradientUnits="objectBoundingBox"><stop offset="0" stop-color="#a01478"/><stop offset="1" stop-color="#d584bd"/></linearGradient><linearGradient id="g" x1="0.5" y1="0.5" x2="0" y2="0.5" gradientUnits="objectBoundingBox"><stop offset="0" stop-color="#b41464"/><stop offset="1" stop-color="#ea9fc5"/></linearGradient><clipPath id="i"><rect width="224" height="224"/></clipPath></defs><g id="h" class="a"><g transform="translate(-138.275 -139.877)"><ellipse class="b" cx="87" cy="60" rx="87" ry="60" transform="translate(163.275 243.877)"/><ellipse class="c" cx="105" cy="64" rx="105" ry="64" transform="translate(145.275 218.877)"/><ellipse class="d" cx="112" cy="57.5" rx="112" ry="57.5" transform="translate(138.275 198.877)"/><ellipse class="e" cx="110" cy="42.5" rx="110" ry="42.5" transform="translate(140.275 184.877)"/><ellipse class="f" cx="100" cy="28" rx="100" ry="28" transform="translate(150.275 171.877)"/><ellipse class="g" cx="80" cy="23.5" rx="80" ry="23.5" transform="translate(170.275 151.877)"/><ellipse class="h" cx="50" cy="16" rx="50" ry="16" transform="translate(200.275 139.877)"/></g></g></svg>