<svg xmlns="http://www.w3.org/2000/svg" xmlns:xlink="http://www.w3.org/1999/xlink" width="1024" height="1024" viewBox="0 0 1024 1024"><defs><linearGradient id="a" x1="0.5" y1="0.5" x2="1" y2="0.5" gradientUnits="objectBoundingBox"><stop offset="0" stop-color="#1464b4"/><stop offset="1" stop-color="#187b68"/></linearGradient><linearGradient id="b" x1="0.5" x2="1" y2="0.5" gradientUnits="objectBoundingBox"><stop offset="0" stop-color="#2850b4"/><stop offset="1" stop-color="#427da8"/></linearGradient><linearGradient id="c" x1="0.5" x2="0.159" y2="0.861" gradientUnits="objectBoundingBox"><stop offset="0" stop-color="#6414b4"/><stop offset="1" stop-color="#986bc3"/></linearGradient><linearGradient id="d" x1="0.5" x2="0.012" gradientUnits="objectBoundingBox"><stop offset="0" stop-color="#7814a0"/><stop offset="1" stop-color="#bb7cd3"/></linearGradient><linearGradient id="e" x1="0.5" x2="-0.029" gradientUnits="objectBoundingBox"><stop offset="0" stop-color="#8c148c"/><stop offset="1" stop-color="#d88dd8"/></linearGradient><linearGradient id="f" x1="0.5" x2="-0.045" gradientUnits="objectBoundingBox"><stop offset="0" stop-color="#a01478"/><stop offset="1" stop-color="#d584bd"/></linearGradient><linearGradient id="g" x1="0.5" y1="0.5" x2="0" y2="0.5" gradientUnits="objectBoundingBox"><stop offset="0" stop-color="#b41464"/><stop offset="1" stop-color="#ea9fc5"/></linearGradient><clipPath id="i"><rect width="1024" height="1024"/></clipPath></defs><g id="h" clip-path="url(#i)"><ellipse cx="290" cy="200" rx="290" ry="200" transform="translate(222 486)" opacity="0.699" fill="url(#a)"/><ellipse cx="350" cy="212" rx="350" ry="212" transform="translate(162 404)" opacity="0.699" fill="url(#b)"/><ellipse cx="374" cy="192.5" rx="374" ry="192.5" transform="translate(138 336)" opacity="0.699" fill="url(#c)"/><ellipse cx="366" cy="141.5" rx="366" ry="141.5" transform="translate(146 290)" opacity="0.699" fill="url(#d)"/><ellipse cx="332" cy="94" rx="332" ry="94" transform="translate(180 248)" opacity="0.699" fill="url(#e)"/><ellipse cx="266" cy="78.5" rx="266" ry="78.5" transform="translate(246 179)" opacity="0.699" fill="url(#f)"/><ellipse cx="165" cy="54" rx="165" ry="54" transform="translate(347 140)" opacity="0.699" fill="url(#g)"/></g></svg>